<svg xmlns="http://www.w3.org/2000/svg" viewBox="0 0 210 80"><defs><style>.cls-1{fill:#fbd449;}.cls-2{fill:#f0aa1f;}.cls-3{fill:#fcdc6c;}.cls-4{fill:#fde89e;}.cls-5{fill:#c1b7aa;}</style></defs><g id="Layer_2" data-name="Layer 2"><g id="Layer_1-2" data-name="Layer 1"><polygon class="cls-1" points="70.92 15.16 85.49 15.16 70.92 0.17 70.92 15.16"/><polygon class="cls-2" points="51.85 50.17 36.81 50.17 36.81 30.9 36.81 15.16 70.92 0.17 70.92 15.16 51.85 50.17"/><polygon class="cls-1" points="52.01 66.24 36.81 80 36.81 30.9 52.01 66.24"/><polygon class="cls-1" points="37.02 0 0 10.91 47.93 37.02 37.02 0"/><polygon class="cls-3" points="43.88 23.13 51.85 50.17 70.92 15.16 43.88 23.13"/><polygon class="cls-4" points="43.85 23.14 66.99 16.32 37.03 0 43.85 23.14"/><polygon class="cls-4" points="43.85 23.14 61.38 32.67 51.85 50.17 43.85 23.14"/><path class="cls-5" d="M83.07,40.08c0-7.52,3.91-13.52,11.13-13.52,2.09,0,5.54.71,7.06,3.41h0a2.9,2.9,0,0,1,2.9-2.9H110V53h-5.85a2.89,2.89,0,0,1-2.9-2.89h0c-1.42,2.64-5,3.4-7.06,3.4C87,53.55,83.07,47.55,83.07,40.08Zm17.74,0c0-3.1-1.73-5.39-4.17-5.39S92.47,37,92.47,40.08s1.73,5.34,4.17,5.34S100.81,43.23,100.81,40.08Z"/><path class="cls-5" d="M80.77,44.16A7,7,0,0,1,77,45.42c-2.75,0-4.68-2.19-4.68-5.34s1.93-5.39,4.68-5.39a6.9,6.9,0,0,1,3.8,1.3,12.52,12.52,0,0,1,4-7.19A14.55,14.55,0,0,0,77,26.56c-8,0-14,6-14,13.52s6,13.47,14,13.47a14.55,14.55,0,0,0,7.85-2.24A12.45,12.45,0,0,1,80.77,44.16Z"/><path class="cls-5" d="M112.21,27.07H118a3,3,0,0,1,3,3h0a9.74,9.74,0,0,1,7.83-3.51c6.55,0,9.1,3.86,9.1,11.49V53h-9.25V39.22c0-2.95-1.12-4-2.9-4-2.85,0-4.27,2.39-4.27,5.59V53h-9.25Z"/><path class="cls-5" d="M139.42,40.08c0-7.52,3.91-13.52,11.13-13.52,2.09,0,5.54.71,7.07,3.41h0a2.89,2.89,0,0,1,2.89-2.9h5.85V53h-5.85a2.89,2.89,0,0,1-2.89-2.89h0c-1.43,2.64-5,3.4-7.07,3.4C143.33,53.55,139.42,47.55,139.42,40.08Zm17.74,0c0-3.1-1.73-5.39-4.17-5.39s-4.17,2.29-4.17,5.39,1.73,5.34,4.17,5.34S157.16,43.23,157.16,40.08Z"/><path class="cls-5" d="M168.66,27.07h6a3,3,0,0,1,3,3v1.62A5.11,5.11,0,0,1,179,29.37c.16-.17.33-.35.52-.52l3.68,8c-.33.06-.64.13-.94.21-3.44,1-4.34,3.49-4.34,7.23V53h-9.25Z"/><path class="cls-5" d="M185.14,52.33c3.46,0,4.17-1.17,4.53-1.78l.76-1.42L180.37,27.07h9.14l3.31,8.74c.76,2,1.73,5.09,1.73,5.09s.91-3.11,1.57-5.09l2.95-8.74H210L197.34,52.89c-3,7.17-8.64,7.63-12.2,7.63Z"/></g></g></svg>